<?xml version="1.0" encoding="utf-8"?>
<!-- Generator: Adobe Illustrator 16.0.4, SVG Export Plug-In . SVG Version: 6.00 Build 0)  -->
<!DOCTYPE svg PUBLIC "-//W3C//DTD SVG 1.1//EN" "http://www.w3.org/Graphics/SVG/1.1/DTD/svg11.dtd">
<svg version="1.1" id="Layer_1" xmlns="http://www.w3.org/2000/svg" xmlns:xlink="http://www.w3.org/1999/xlink" x="0px" y="0px"
	 width="85.828px" height="15.053px" viewBox="0 0 85.828 15.053" enable-background="new 0 0 85.828 15.053" xml:space="preserve">
<polygon fill="#FFB96B" points="7.913,0 10.359,4.955 15.827,5.75 11.87,9.606 12.804,15.053 7.913,12.481 3.022,15.053 
	3.957,9.606 0,5.75 5.468,4.955 "/>
<polygon fill="#FFB96B" points="25.163,0 27.608,4.955 33.077,5.75 29.12,9.606 30.054,15.053 25.163,12.481 20.272,15.053 
	21.207,9.606 17.25,5.75 22.718,4.955 "/>
<polygon fill="#FFB96B" points="42.913,0 45.358,4.955 50.828,5.75 46.871,9.606 47.803,15.053 42.913,12.481 38.022,15.053 
	38.957,9.606 35,5.75 40.468,4.955 "/>
<polygon fill="#FFB96B" points="60.414,0 62.858,4.955 68.328,5.75 64.371,9.606 65.303,15.053 60.414,12.481 55.522,15.053 
	56.457,9.606 52.5,5.75 57.966,4.955 "/>
<polygon fill="#CCCCCC" points="77.914,0 80.358,4.955 85.828,5.75 81.871,9.606 82.803,15.053 77.914,12.481 73.022,15.053 
	73.957,9.606 70,5.75 75.466,4.955 "/>
</svg>
