<?xml version="1.0" encoding="utf-8"?>
<!-- Generator: Adobe Illustrator 16.0.4, SVG Export Plug-In . SVG Version: 6.00 Build 0)  -->
<!DOCTYPE svg PUBLIC "-//W3C//DTD SVG 1.1//EN" "http://www.w3.org/Graphics/SVG/1.1/DTD/svg11.dtd">
<svg version="1.1" id="Layer_1" xmlns="http://www.w3.org/2000/svg" xmlns:xlink="http://www.w3.org/1999/xlink" x="0px" y="0px"
	 width="210.08px" height="40.995px" viewBox="0 0 210.08 40.995" enable-background="new 0 0 210.08 40.995" xml:space="preserve">
<g>
	<path fill="#FFFFFF" d="M63.442,30.666V5.874c0-0.493,0.207-0.922,0.623-1.286c0.415-0.364,0.961-0.545,1.637-0.545h8.069
		c2.78,0,5.009,0.72,6.685,2.163c1.677,1.442,2.515,3.709,2.515,6.802v0.195c0,3.092-0.877,5.373-2.631,6.84
		c-1.754,1.469-4.074,2.202-6.958,2.202h-3.859v8.421c0,0.598-0.299,1.059-0.896,1.383c-0.599,0.326-1.313,0.487-2.144,0.487
		c-0.832,0-1.548-0.161-2.145-0.487C63.741,31.724,63.442,31.263,63.442,30.666 M69.522,17.568h3.859
		c2.339,0,3.508-1.299,3.508-3.898v-0.429c0-2.598-1.169-3.897-3.508-3.897h-3.859V17.568z"/>
	<path fill="#FFFFFF" d="M83.789,27.525c0-2.077,0.786-3.541,2.358-4.393c1.571-0.851,3.826-1.277,6.763-1.277h1.403v-0.407
		c0-0.817-0.233-1.524-0.701-2.124c-0.469-0.599-1.209-0.898-2.223-0.898c-1.246,0-2.273,0.24-3.078,0.721
		c-0.807,0.481-1.301,0.721-1.482,0.721c-0.623,0-1.117-0.305-1.48-0.916c-0.365-0.61-0.546-1.306-0.546-2.085
		c0-0.858,0.722-1.592,2.163-2.202c1.441-0.611,2.943-0.917,4.502-0.917c2.988,0,5.217,0.728,6.686,2.183
		c1.468,1.456,2.201,3.274,2.201,5.458v9.276c0,0.521-0.278,0.962-0.838,1.326c-0.559,0.364-1.266,0.545-2.123,0.545
		c-0.755,0-1.392-0.194-1.91-0.582c-0.521-0.39-0.78-0.86-0.78-1.415v-0.916c-1.793,2.202-3.769,3.303-5.925,3.303
		c-1.43,0-2.618-0.46-3.566-1.38C84.262,30.625,83.789,29.285,83.789,27.525 M89.87,26.73c0,1.013,0.507,1.519,1.52,1.519
		c0.649,0,1.299-0.337,1.949-1.013c0.648-0.674,0.975-1.445,0.975-2.312v-0.145h-0.156c-0.857,0-1.565,0.037-2.125,0.109
		c-0.559,0.072-1.059,0.258-1.5,0.56C90.089,25.749,89.87,26.177,89.87,26.73"/>
	<path fill="#FFFFFF" d="M101.758,38.302c0-1.739,0.492-2.609,1.481-2.609c3.688,0,5.534-1.645,5.534-4.938l-6.821-13.42
		c-0.13-0.257-0.194-0.515-0.194-0.772c0-0.72,0.467-1.375,1.402-1.967c0.937-0.591,1.832-0.887,2.689-0.887
		s1.416,0.322,1.677,0.964l4.405,10.454l3.234-10.454c0.259-0.642,0.779-0.964,1.56-0.964c0.805,0,1.7,0.302,2.689,0.907
		c0.987,0.604,1.481,1.292,1.481,2.063c0,0.26-0.054,0.482-0.156,0.663l-5.536,13.817c-0.13,0.364-0.363,0.976-0.701,1.835
		l-0.702,1.795c-0.13,0.391-0.369,0.93-0.721,1.619c-0.351,0.689-0.676,1.203-0.974,1.543c-0.299,0.338-0.708,0.741-1.229,1.21
		c-0.52,0.468-1.065,0.806-1.637,1.015c-0.572,0.207-1.261,0.396-2.066,0.565c-0.806,0.169-1.688,0.254-2.649,0.254
		c-0.91,0-1.6-0.178-2.066-0.53C101.992,40.111,101.758,39.39,101.758,38.302"/>
	<path fill="#FFFFFF" d="M122.143,24.662v-2.65c0-2.468,0.734-4.463,2.202-5.983c1.468-1.52,3.658-2.28,6.567-2.28
		c1.872,0,3.438,0.318,4.698,0.955c1.26,0.637,1.891,1.397,1.891,2.28c0,0.65-0.229,1.306-0.683,1.969
		c-0.455,0.662-1.007,0.994-1.657,0.994c-0.208,0-0.682-0.15-1.423-0.449c-0.739-0.298-1.513-0.448-2.318-0.448
		c-2.157,0-3.235,0.991-3.235,2.975v2.626c0,1.983,1.091,2.975,3.274,2.975c0.779,0,1.526-0.168,2.24-0.506
		c0.716-0.338,1.203-0.508,1.462-0.508c0.755,0,1.371,0.312,1.853,0.936c0.479,0.623,0.721,1.273,0.721,1.949
		c0,0.91-0.663,1.709-1.988,2.397s-2.91,1.033-4.755,1.033c-2.963,0-5.179-0.755-6.646-2.261
		C122.877,29.158,122.143,27.158,122.143,24.662"/>
	<path fill="#FFFFFF" d="M140.034,30.666V15.814c0-0.546,0.279-0.987,0.838-1.325c0.56-0.338,1.268-0.507,2.124-0.507
		c0.754,0,1.391,0.17,1.91,0.511c0.521,0.34,0.78,0.785,0.78,1.336v1.453c0.416-0.942,1.059-1.767,1.93-2.474
		c0.87-0.706,1.773-1.06,2.709-1.06h1.13c0.571,0,1.072,0.262,1.501,0.786c0.429,0.523,0.644,1.138,0.644,1.845
		c0,0.734-0.215,1.361-0.644,1.885s-0.93,0.785-1.501,0.785h-1.13c-1.118,0-2.104,0.538-2.963,1.613
		c-0.858,1.076-1.286,2.468-1.286,4.179v5.828c0,0.468-0.305,0.895-0.916,1.283c-0.611,0.39-1.332,0.584-2.164,0.584
		c-0.831,0-1.533-0.188-2.104-0.565C140.319,31.594,140.034,31.16,140.034,30.666"/>
	<path fill="#FFFFFF" d="M154.339,27.525c0-2.077,0.786-3.541,2.357-4.393c1.572-0.851,3.827-1.277,6.765-1.277h1.402v-0.407
		c0-0.817-0.233-1.524-0.701-2.124c-0.469-0.599-1.208-0.898-2.223-0.898c-1.247,0-2.273,0.24-3.079,0.721s-1.3,0.721-1.481,0.721
		c-0.623,0-1.117-0.305-1.48-0.916c-0.364-0.61-0.546-1.306-0.546-2.085c0-0.858,0.722-1.592,2.163-2.202
		c1.442-0.611,2.943-0.917,4.502-0.917c2.988,0,5.217,0.728,6.686,2.183c1.468,1.456,2.202,3.274,2.202,5.458v9.276
		c0,0.521-0.279,0.962-0.839,1.326c-0.558,0.364-1.266,0.545-2.124,0.545c-0.754,0-1.391-0.194-1.909-0.582
		c-0.521-0.39-0.779-0.86-0.779-1.415v-0.916c-1.793,2.202-3.77,3.303-5.926,3.303c-1.43,0-2.618-0.46-3.566-1.38
		C154.813,30.625,154.339,29.285,154.339,27.525 M160.42,26.73c0,1.013,0.507,1.519,1.52,1.519c0.65,0,1.299-0.337,1.949-1.013
		c0.65-0.674,0.975-1.445,0.975-2.312v-0.145h-0.155c-0.858,0-1.566,0.037-2.124,0.109c-0.561,0.072-1.061,0.258-1.502,0.56
		C160.641,25.749,160.42,26.177,160.42,26.73"/>
	<path fill="#FFFFFF" d="M172.27,16.243c0-0.649,0.468-1.234,1.403-1.754s1.833-0.78,2.689-0.78c0.858,0,1.416,0.325,1.676,0.975
		l4.016,10.173l4.015-10.173c0.259-0.65,0.806-0.975,1.637-0.975c0.728,0,1.592,0.267,2.593,0.799c1,0.533,1.5,1.125,1.5,1.774
		c0,0.234-0.052,0.468-0.155,0.701l-6.861,15.007c-0.311,0.702-1.221,1.053-2.728,1.053c-1.508,0-2.417-0.351-2.729-1.053
		l-6.859-15.007C172.335,16.776,172.27,16.529,172.27,16.243"/>
	<path fill="#FFFFFF" d="M192.733,24.662v-2.845c0-2.209,0.877-4.106,2.631-5.691s3.865-2.378,6.334-2.378
		c2.313,0,4.288,0.697,5.927,2.092c1.637,1.395,2.455,3.173,2.455,5.336c0,0.827-0.104,1.497-0.312,2.015
		c-0.209,0.516-0.52,0.878-0.936,1.084c-0.416,0.207-0.8,0.342-1.15,0.407s-0.813,0.097-1.384,0.097h-7.523v0.236
		c0,0.973,0.364,1.755,1.092,2.346c0.728,0.592,1.688,0.887,2.885,0.887c0.908,0,1.864-0.246,2.864-0.74
		c1-0.493,1.671-0.74,2.009-0.74c0.648,0,1.182,0.307,1.598,0.916c0.415,0.611,0.623,1.189,0.623,1.734
		c0,0.806-0.695,1.592-2.085,2.358s-3.112,1.15-5.165,1.15c-2.91,0-5.282-0.761-7.113-2.28
		C193.65,29.125,192.733,27.13,192.733,24.662 M198.775,21.388h4.834c0.545,0,0.818-0.282,0.818-0.847
		c0-0.657-0.279-1.175-0.837-1.551c-0.561-0.376-1.229-0.565-2.008-0.565c-0.756,0-1.41,0.189-1.97,0.565
		c-0.559,0.376-0.838,0.894-0.838,1.551V21.388z"/>
	<path fill="#FFFFFF" d="M0.036,15.654c0.365,1.157,1.631,3.19,3.801,2.594c0.306-0.083,0.588-0.184,0.845-0.303
		c0.765,0.563,1.621,0.899,2.276,1.097c0.276,1.826,0.857,3.602,1.738,5.241v8.568c0,1.51,1.229,2.738,2.737,2.738h4.162
		c1.51,0,2.737-1.229,2.737-2.738v-0.509c3.593,1.216,7.597,1.226,11.195,0.024v0.484c0,1.51,1.229,2.738,2.739,2.738h4.162
		c1.51,0,2.737-1.229,2.737-2.738v-4.812c0.726,0.135,1.461,0.203,2.203,0.203c3.586,0,6.971-1.587,9.205-4.277h3.676
		c0.836,0,1.517-0.68,1.517-1.519v-7.813c0-0.836-0.681-1.518-1.517-1.518h-1.704c-1.376-3.902-4.87-6.811-9.054-7.553V2.263
		c0-0.713-0.565-1.345-1.264-1.497c0,0-0.14-0.029-0.406-0.029c-0.94,0-3.23,0.426-5.836,4.005C32.786,1.708,28.506,0,23.967,0
		c-9.483,0-17.2,7.462-17.2,16.632c0,0.247,0.013,0.493,0.022,0.741c-0.266-0.11-0.545-0.238-0.817-0.403
		c0.188-0.23,0.338-0.487,0.451-0.765c0.752-1.849-0.493-4.004-0.546-4.096c-0.059-0.098-0.139-0.182-0.233-0.246
		c-0.092-0.062-0.917-0.585-1.743-0.129c-0.729,0.404-1.062,1.359-1.018,2.92c0.023,0.841,0.271,1.535,0.646,2.105
		c-0.031,0.007-0.061,0.015-0.093,0.024c-1.323,0.364-1.948-1.567-1.955-1.586c-0.128-0.399-0.552-0.622-0.952-0.496
		C0.131,14.826-0.091,15.254,0.036,15.654 M9.804,16.632c0-7.496,6.353-13.594,14.163-13.594c4.322,0,8.355,1.865,11.064,5.12
		c0.315,0.378,0.797,0.584,1.285,0.541c0.492-0.038,0.934-0.313,1.186-0.737c1.166-1.963,2.193-3.005,2.953-3.56v2.509
		c0,0.805,0.629,1.471,1.432,1.516c3.893,0.218,7.199,2.911,8.043,6.547c0.16,0.689,0.773,1.177,1.479,1.177h1.322v4.776h-2.9
		c-0.488,0-0.948,0.235-1.232,0.633c-1.643,2.282-4.343,3.645-7.229,3.645c-1.084,0-2.156-0.195-3.188-0.582
		c-0.468-0.174-0.989-0.109-1.398,0.174c-0.41,0.283-0.654,0.75-0.654,1.248v6.508h-3.564v-2.447c0-0.521-0.27-1.01-0.715-1.289
		c-0.445-0.275-1-0.304-1.47-0.074c-2.017,0.985-4.173,1.485-6.413,1.485c-2.266,0-4.445-0.511-6.479-1.517
		c-0.47-0.234-1.027-0.207-1.473,0.069c-0.448,0.277-0.719,0.767-0.719,1.291v2.481h-3.565V23.89c0-0.262-0.069-0.521-0.198-0.752
		C10.403,21.153,9.804,18.905,9.804,16.632 M4.641,13.059c0.003,0.001,0.014,0.005,0.027,0.009c0.279,0.566,0.693,1.725,0.348,2.57
		c-0.048,0.11-0.105,0.217-0.178,0.315c-0.256-0.372-0.424-0.816-0.436-1.343C4.364,13.312,4.639,13.061,4.641,13.059"/>
	<path fill="#FFFFFF" d="M45.5,11.986c0.56,0,1.013,0.71,1.013,1.586c0,0.875-0.453,1.585-1.013,1.585s-1.011-0.71-1.011-1.585
		C44.489,12.696,44.94,11.986,45.5,11.986"/>
	<path fill="#FFFFFF" d="M19.484,6.369c5.134-1.907,8.095-0.004,8.218,0.079c0.346,0.23,0.441,0.695,0.213,1.045
		c-0.227,0.349-0.697,0.448-1.048,0.224c-0.101-0.065-2.496-1.544-6.854,0.075c-0.088,0.032-0.176,0.048-0.266,0.048
		c-0.307,0-0.598-0.19-0.711-0.494C18.889,6.951,19.09,6.514,19.484,6.369"/>
</g>
<g>
</g>
<g>
</g>
<g>
</g>
<g>
</g>
<g>
</g>
<g>
</g>
<g>
</g>
<g>
</g>
<g>
</g>
<g>
</g>
<g>
</g>
<g>
</g>
<g>
</g>
<g>
</g>
<g>
</g>
</svg>
