<?xml version="1.0" encoding="utf-8"?>
<!-- Generator: Adobe Illustrator 16.0.4, SVG Export Plug-In . SVG Version: 6.00 Build 0)  -->
<!DOCTYPE svg PUBLIC "-//W3C//DTD SVG 1.1//EN" "http://www.w3.org/Graphics/SVG/1.1/DTD/svg11.dtd">
<svg version="1.1" id="Layer_1" xmlns="http://www.w3.org/2000/svg" xmlns:xlink="http://www.w3.org/1999/xlink" x="0px" y="0px"
	 width="392px" height="763px" viewBox="0 0 392 763" enable-background="new 0 0 392 763" xml:space="preserve">
<g>
	<path fill="#333333" d="M391,172.033V61.004C391,41.268,373.322,0,307.336,0H84.76C18.283,0,1,39.298,1,61.004v54.65
		c0,0.341-1,0.976-1,1.704v123.112c0,0.729,1,1.363,1,1.705V678.45C1,749.992,56.694,763,119.07,763h154.301
		C341.001,763,391,746.71,391,678.45V236.684c0-0.36,1-0.882,1-1.465v-61.72C392,172.916,391,172.394,391,172.033z M373,656H19V95
		h354V656z"/>
	<path fill="none" stroke="#FFFFFF" stroke-width="1.9698" stroke-miterlimit="10" d="M241.573,20.182
		c0,2.901-2.351,5.253-5.252,5.253h-80.763c-2.9,0-5.252-2.352-5.252-5.253c0-2.901,2.352-5.253,5.252-5.253h80.763
		C239.223,14.929,241.573,17.281,241.573,20.182z"/>
	<path fill="none" stroke="#FFFFFF" stroke-width="1.9698" stroke-miterlimit="10" d="M243.872,730.296
		c0,4.532-3.675,8.206-8.208,8.206h-79.447c-4.533,0-8.209-3.674-8.209-8.206v-11.163c0-4.532,3.676-8.207,8.209-8.207h79.447
		c4.533,0,8.208,3.675,8.208,8.207V730.296z"/>
	<g>
		<rect x="18.658" y="656.794" fill="#4D4D4D" width="354.565" height="41.984"/>
		<g opacity="0.4">
			<g>
				<defs>
					<rect id="SVGID_1_" x="63.438" y="671.664" width="28.848" height="14.857"/>
				</defs>
				<clipPath id="SVGID_2_">
					<use xlink:href="#SVGID_1_"  overflow="visible"/>
				</clipPath>
				<g clip-path="url(#SVGID_2_)">
					<defs>
						<rect id="SVGID_3_" x="63.438" y="671.666" width="28.848" height="14.857"/>
					</defs>
					<clipPath id="SVGID_4_">
						<use xlink:href="#SVGID_3_"  overflow="visible"/>
					</clipPath>
					<path clip-path="url(#SVGID_4_)" fill="#FFFFFF" d="M86.171,676.044H66.59l3.826-4.379h-2.402l-4.577,5.25l4.577,5.247h2.402
						l-3.826-4.383h19.581c1.992,0,4.361,0.603,4.361,3.495c0,2.898-2.369,3.511-4.361,3.511H76.54v1.738h9.631
						c3.833,0,6.115-1.955,6.115-5.249C92.286,678.004,90.004,676.044,86.171,676.044"/>
				</g>
			</g>
		</g>
		<g opacity="0.4">
			<g>
				<defs>
					<rect id="SVGID_5_" x="299.312" y="671.664" width="29.748" height="14.857"/>
				</defs>
				<clipPath id="SVGID_6_">
					<use xlink:href="#SVGID_5_"  overflow="visible"/>
				</clipPath>
				<g clip-path="url(#SVGID_6_)">
					<defs>
						<rect id="SVGID_7_" x="299.312" y="671.666" width="29.744" height="14.857"/>
					</defs>
					<clipPath id="SVGID_8_">
						<use xlink:href="#SVGID_7_"  overflow="visible"/>
					</clipPath>
					<path clip-path="url(#SVGID_8_)" fill-rule="evenodd" clip-rule="evenodd" fill="#FFFFFF" d="M299.31,686.523h24.489v-10.479
						H299.31V686.523z M301.062,677.779h20.982v7.006h-20.982V677.779z M306.309,671.665v1.741h20.984v8.756h1.765v-10.497H306.309z
						"/>
				</g>
			</g>
		</g>
		<g opacity="0.4">
			<g>
				<defs>
					<rect id="SVGID_9_" x="136.79" y="656.793" width="119.608" height="41.983"/>
				</defs>
				<clipPath id="SVGID_10_">
					<use xlink:href="#SVGID_9_"  overflow="visible"/>
				</clipPath>
				<g clip-path="url(#SVGID_10_)">
					<defs>
						<rect id="SVGID_11_" x="136.79" y="656.794" width="119.608" height="41.984"/>
					</defs>
					<clipPath id="SVGID_12_">
						<use xlink:href="#SVGID_11_"  overflow="visible"/>
					</clipPath>
					<path clip-path="url(#SVGID_12_)" fill="#E6E6E6" d="M251.371,656.794H141.818c-3.208,6.304-5.029,13.434-5.029,20.993
						c0,7.558,1.821,14.688,5.029,20.991h109.553c3.209-6.304,5.029-13.434,5.029-20.991
						C256.4,670.228,254.58,663.098,251.371,656.794"/>
				</g>
			</g>
		</g>
		<path fill-rule="evenodd" clip-rule="evenodd" fill="#FFFFFF" d="M196.74,669.93l-15.733,5.725v10.842h31.512v-10.802
			L196.74,669.93z M210.754,684.763h-27.983v-7.878l13.97-5.076l14.014,5.049V684.763z"/>
	</g>
	<g>
		<rect x="18.658" y="68.442" fill="#808080" width="354.565" height="24.622"/>
		<g>
			<path fill="#FFFFFF" d="M330.23,86.333h-1.432v-9.487l-2.87,1.054v-1.293l4.078-1.531h0.224V86.333z"/>
			<path fill="#FFFFFF" d="M341.741,86.333H334.4V85.31l3.879-4.309c0.574-0.651,0.971-1.181,1.188-1.589s0.327-0.83,0.327-1.266
				c0-0.585-0.178-1.064-0.531-1.439s-0.826-0.562-1.416-0.562c-0.708,0-1.258,0.201-1.65,0.604s-0.589,0.963-0.589,1.681h-1.423
				c0-1.031,0.332-1.865,0.996-2.5c0.664-0.636,1.553-0.954,2.666-0.954c1.042,0,1.865,0.273,2.47,0.819
				c0.605,0.546,0.908,1.273,0.908,2.181c0,1.103-0.702,2.416-2.108,3.94l-3.001,3.254h5.625V86.333z"/>
			<path fill="#FFFFFF" d="M343.35,85.587c0-0.246,0.073-0.451,0.219-0.615c0.146-0.164,0.366-0.247,0.658-0.247
				s0.515,0.083,0.666,0.247c0.15,0.164,0.227,0.369,0.227,0.615c0,0.236-0.076,0.434-0.227,0.593
				c-0.151,0.159-0.374,0.238-0.666,0.238s-0.512-0.08-0.658-0.238C343.423,86.021,343.35,85.823,343.35,85.587z M343.357,78.793
				c0-0.247,0.073-0.452,0.219-0.616c0.146-0.164,0.366-0.246,0.658-0.246s0.514,0.082,0.665,0.246s0.228,0.369,0.228,0.616
				c0,0.236-0.076,0.434-0.228,0.592c-0.151,0.159-0.373,0.239-0.665,0.239s-0.512-0.08-0.658-0.239
				C343.431,79.227,343.357,79.029,343.357,78.793z"/>
			<path fill="#FFFFFF" d="M353.075,82.571h1.555v1.162h-1.555v2.601h-1.431v-2.601h-5.102v-0.839l5.017-7.764h1.516V82.571z
				 M348.158,82.571h3.486v-5.494l-0.17,0.308L348.158,82.571z"/>
			<path fill="#FFFFFF" d="M356.568,80.716l0.569-5.586h5.74v1.315h-4.532l-0.338,3.055c0.549-0.323,1.172-0.485,1.869-0.485
				c1.021,0,1.831,0.337,2.432,1.012c0.601,0.675,0.9,1.586,0.9,2.735c0,1.154-0.312,2.063-0.935,2.728
				c-0.624,0.665-1.494,0.997-2.612,0.997c-0.99,0-1.799-0.274-2.424-0.823c-0.626-0.549-0.982-1.308-1.07-2.277h1.347
				c0.088,0.641,0.315,1.125,0.686,1.45c0.369,0.326,0.856,0.489,1.462,0.489c0.661,0,1.181-0.226,1.558-0.677
				s0.565-1.075,0.565-1.87c0-0.749-0.204-1.351-0.611-1.805c-0.408-0.454-0.95-0.681-1.628-0.681c-0.62,0-1.107,0.136-1.462,0.408
				l-0.377,0.308L356.568,80.716z"/>
		</g>
		<path fill="#FFFFFF" d="M310.437,79.366v-3.515h2.433v-1.622h2.163v1.622h2.435v3.515H310.437z M316.114,74.77v-1.622h-4.325
			v1.622h-2.434v14.059h9.192V74.77H316.114z"/>
		<rect x="282.144" y="83.786" fill="#FFFFFF" width="3.249" height="5.042"/>
		<rect x="287.315" y="80.239" fill="#FFFFFF" width="3.251" height="8.589"/>
		<rect x="292.485" y="76.694" fill="#FFFFFF" width="3.252" height="12.134"/>
		<rect x="297.658" y="73.146" fill="#FFFFFF" width="3.249" height="15.682"/>
		<path fill="#FFFFFF" d="M270.676,81.239c-0.025,3.679-0.421,6.61-0.91,6.61c-0.402,0-0.955-1.985-1.161-4.732l-2.674,2.414
			c1.138,1.671,2.396,3.415,2.713,3.415h1.328c0.877,0,1.536-3.626,1.536-8.076l-0.003-0.379L270.676,81.239z M263.159,83.907h0.103
			l5.578-5.038c-0.075-0.071-0.154-0.136-0.239-0.186c0.207-2.765,0.759-4.758,1.165-4.758c0.334,0,0.623,1.362,0.783,3.4
			l0.748-0.677c-0.255-2.292-0.721-3.819-1.29-3.819h-1.363c-0.431,0-2.361,3.029-3.597,5.038h-1.888
			c-0.482,0-0.873,1.34-0.873,3.021C262.286,82.568,262.677,83.907,263.159,83.907 M275.105,74.233l-14.254,12.88l0.767,0.921
			l14.254-12.883L275.105,74.233z"/>
	</g>
</g>
<g>
</g>
<g>
</g>
<g>
</g>
<g>
</g>
<g>
</g>
<g>
</g>
<g>
</g>
<g>
</g>
<g>
</g>
<g>
</g>
<g>
</g>
<g>
</g>
<g>
</g>
<g>
</g>
<g>
</g>
</svg>
