<?xml version="1.0" encoding="utf-8"?>
<!-- Generator: Adobe Illustrator 16.0.4, SVG Export Plug-In . SVG Version: 6.00 Build 0)  -->
<!DOCTYPE svg PUBLIC "-//W3C//DTD SVG 1.1//EN" "http://www.w3.org/Graphics/SVG/1.1/DTD/svg11.dtd">
<svg version="1.1" id="Layer_1" xmlns="http://www.w3.org/2000/svg" xmlns:xlink="http://www.w3.org/1999/xlink" x="0px" y="0px"
	 width="354.565px" height="24.623px" viewBox="0 0 354.565 24.623" enable-background="new 0 0 354.565 24.623"
	 xml:space="preserve">
<g>
	<rect fill="#808080" width="354.565" height="24.623"/>
	<g>
		<path fill="#FFFFFF" d="M311.573,17.892h-1.432V8.404l-2.87,1.054V8.166l4.078-1.531h0.224V17.892z"/>
		<path fill="#FFFFFF" d="M323.083,17.892h-7.341v-1.023l3.879-4.31c0.574-0.651,0.971-1.181,1.188-1.589s0.327-0.83,0.327-1.266
			c0-0.585-0.178-1.064-0.531-1.439s-0.826-0.562-1.416-0.562c-0.708,0-1.258,0.201-1.65,0.604s-0.589,0.963-0.589,1.681h-1.423
			c0-1.031,0.332-1.865,0.996-2.5c0.664-0.636,1.553-0.954,2.666-0.954c1.042,0,1.865,0.273,2.47,0.819
			c0.605,0.546,0.908,1.273,0.908,2.181c0,1.103-0.702,2.416-2.108,3.94l-3.001,3.255h5.625V17.892z"/>
		<path fill="#FFFFFF" d="M324.692,17.145c0-0.246,0.073-0.451,0.219-0.615c0.146-0.164,0.366-0.247,0.658-0.247
			s0.515,0.083,0.666,0.247c0.15,0.164,0.227,0.369,0.227,0.615c0,0.236-0.076,0.434-0.227,0.593
			c-0.151,0.158-0.374,0.238-0.666,0.238s-0.512-0.08-0.658-0.238C324.765,17.579,324.692,17.381,324.692,17.145z M324.7,10.351
			c0-0.247,0.073-0.452,0.219-0.616c0.146-0.164,0.366-0.246,0.658-0.246s0.514,0.082,0.665,0.246s0.228,0.369,0.228,0.616
			c0,0.236-0.076,0.434-0.228,0.592c-0.151,0.159-0.373,0.239-0.665,0.239s-0.512-0.08-0.658-0.239
			C324.773,10.785,324.7,10.587,324.7,10.351z"/>
		<path fill="#FFFFFF" d="M334.417,14.128h1.555v1.162h-1.555v2.602h-1.431v-2.602h-5.102v-0.838l5.017-7.764h1.516V14.128z
			 M329.5,14.128h3.486V8.635l-0.17,0.308L329.5,14.128z"/>
		<path fill="#FFFFFF" d="M337.911,12.274l0.569-5.586h5.74v1.315h-4.532l-0.338,3.055c0.549-0.323,1.172-0.485,1.869-0.485
			c1.021,0,1.831,0.337,2.432,1.012c0.601,0.675,0.9,1.586,0.9,2.736c0,1.154-0.312,2.062-0.935,2.727
			c-0.624,0.665-1.494,0.997-2.612,0.997c-0.99,0-1.799-0.274-2.424-0.823c-0.626-0.549-0.982-1.309-1.07-2.277h1.347
			c0.088,0.641,0.315,1.125,0.686,1.45c0.369,0.325,0.856,0.489,1.462,0.489c0.661,0,1.181-0.227,1.558-0.678
			s0.565-1.074,0.565-1.869c0-0.75-0.204-1.352-0.611-1.805c-0.408-0.454-0.95-0.681-1.628-0.681c-0.62,0-1.107,0.136-1.462,0.408
			l-0.377,0.308L337.911,12.274z"/>
	</g>
	<path fill="#FFFFFF" d="M291.779,10.924V7.41h2.433V5.788h2.163V7.41h2.435v3.515H291.779z M297.457,6.328V4.706h-4.325v1.622
		h-2.434v14.058h9.192V6.328H297.457z"/>
	<rect x="263.486" y="15.344" fill="#FFFFFF" width="3.249" height="5.042"/>
	<rect x="268.658" y="11.797" fill="#FFFFFF" width="3.251" height="8.589"/>
	<rect x="273.828" y="8.252" fill="#FFFFFF" width="3.252" height="12.134"/>
	<rect x="279" y="4.705" fill="#FFFFFF" width="3.249" height="15.682"/>
	<path fill="#FFFFFF" d="M252.018,12.796c-0.025,3.68-0.421,6.61-0.91,6.61c-0.402,0-0.955-1.985-1.161-4.731l-2.674,2.413
		c1.138,1.671,2.396,3.415,2.713,3.415h1.328c0.877,0,1.536-3.627,1.536-8.076l-0.003-0.379L252.018,12.796z M244.501,15.465h0.103
		l5.578-5.038c-0.075-0.071-0.154-0.136-0.239-0.186c0.207-2.765,0.759-4.758,1.165-4.758c0.334,0,0.623,1.362,0.783,3.4
		l0.748-0.677c-0.255-2.292-0.721-3.819-1.29-3.819h-1.363c-0.431,0-2.361,3.029-3.597,5.038h-1.888
		c-0.482,0-0.873,1.34-0.873,3.021C243.628,14.126,244.019,15.465,244.501,15.465 M256.448,5.792l-14.254,12.88l0.767,0.922
		L257.214,6.71L256.448,5.792z"/>
</g>
<g>
</g>
<g>
</g>
<g>
</g>
<g>
</g>
<g>
</g>
<g>
</g>
<g>
</g>
<g>
</g>
<g>
</g>
<g>
</g>
<g>
</g>
<g>
</g>
<g>
</g>
<g>
</g>
<g>
</g>
</svg>
