<?xml version="1.0" encoding="utf-8"?>
<!-- Generator: Adobe Illustrator 16.0.4, SVG Export Plug-In . SVG Version: 6.00 Build 0)  -->
<!DOCTYPE svg PUBLIC "-//W3C//DTD SVG 1.1//EN" "http://www.w3.org/Graphics/SVG/1.1/DTD/svg11.dtd">
<svg version="1.1" id="Layer_1" xmlns="http://www.w3.org/2000/svg" xmlns:xlink="http://www.w3.org/1999/xlink" x="0px" y="0px"
	 width="40px" height="25.488px" viewBox="0 0 40 25.488" enable-background="new 0 0 40 25.488" xml:space="preserve">
<g>
	<path fill="#FFFFFF" d="M0.082,11.21c0.262,0.829,1.169,2.285,2.723,1.858c0.218-0.059,0.42-0.132,0.604-0.218
		c0.548,0.403,1.161,0.645,1.63,0.787c0.199,1.308,0.614,2.579,1.244,3.752v6.137c0,1.081,0.88,1.961,1.961,1.961h2.98
		c1.082,0,1.961-0.88,1.961-1.961v-0.364c2.573,0.87,5.44,0.878,8.017,0.017v0.348c0,1.081,0.88,1.961,1.962,1.961h2.98
		c1.082,0,1.96-0.88,1.96-1.961v-3.446c0.521,0.096,1.047,0.146,1.578,0.146c2.567,0,4.991-1.137,6.593-3.063h2.631
		c0.6,0,1.088-0.486,1.088-1.088v-5.596c0-0.598-0.488-1.086-1.088-1.086h-1.221c-0.984-2.795-3.487-4.879-6.482-5.41V1.622
		c0-0.511-0.405-0.964-0.905-1.073c0,0-0.101-0.021-0.291-0.021c-0.674,0-2.313,0.306-4.18,2.868C23.535,1.224,20.471,0,17.22,0
		C10.43,0,4.903,5.345,4.903,11.912c0,0.177,0.008,0.353,0.016,0.53c-0.19-0.078-0.391-0.17-0.584-0.288
		c0.134-0.165,0.241-0.35,0.322-0.548c0.539-1.324-0.352-2.868-0.39-2.934c-0.042-0.07-0.1-0.13-0.167-0.176
		C4.034,8.452,3.442,8.077,2.851,8.404c-0.523,0.289-0.762,0.974-0.729,2.091c0.017,0.603,0.195,1.1,0.463,1.508
		c-0.022,0.005-0.044,0.011-0.066,0.017c-0.948,0.261-1.396-1.121-1.4-1.136c-0.092-0.285-0.395-0.444-0.682-0.355
		C0.15,10.618-0.009,10.924,0.082,11.21 M7.078,11.912c0-5.368,4.549-9.735,10.142-9.735c3.096,0,5.984,1.335,7.924,3.666
		c0.227,0.271,0.571,0.418,0.92,0.387c0.354-0.026,0.669-0.224,0.85-0.527c0.835-1.406,1.571-2.152,2.114-2.55V4.95
		c0,0.577,0.451,1.053,1.026,1.085c2.787,0.156,5.155,2.084,5.76,4.688c0.113,0.494,0.554,0.843,1.059,0.843h0.947v3.42h-2.078
		c-0.35,0-0.679,0.169-0.882,0.454c-1.177,1.634-3.11,2.609-5.177,2.609c-0.776,0-1.545-0.14-2.282-0.417
		c-0.336-0.124-0.709-0.078-1.002,0.125c-0.294,0.203-0.47,0.538-0.47,0.894v4.661h-2.552V21.56c0-0.373-0.193-0.723-0.512-0.923
		c-0.319-0.197-0.716-0.218-1.053-0.054c-1.445,0.706-2.989,1.064-4.593,1.064c-1.622,0-3.183-0.366-4.64-1.086
		c-0.335-0.168-0.736-0.148-1.054,0.05c-0.321,0.198-0.516,0.548-0.516,0.924v1.777H8.458v-6.204c0-0.188-0.05-0.373-0.142-0.537
		C7.506,15.149,7.078,13.539,7.078,11.912 M3.381,9.353c0.002,0,0.01,0.003,0.02,0.006C3.6,9.765,3.896,10.594,3.649,11.2
		c-0.035,0.078-0.077,0.155-0.128,0.226c-0.183-0.266-0.303-0.584-0.312-0.962C3.181,9.534,3.379,9.354,3.381,9.353"/>
	<path fill="#FFFFFF" d="M32.642,8.584c0.399,0,0.725,0.508,0.725,1.136c0,0.626-0.325,1.136-0.725,1.136
		c-0.4,0-0.725-0.51-0.725-1.136C31.917,9.092,32.241,8.584,32.642,8.584"/>
	<path fill="#FFFFFF" d="M14.01,4.562c3.677-1.365,5.797-0.003,5.886,0.057c0.248,0.165,0.315,0.497,0.152,0.749
		c-0.163,0.25-0.5,0.32-0.75,0.16c-0.073-0.046-1.787-1.105-4.909,0.054c-0.063,0.022-0.126,0.034-0.19,0.034
		c-0.221,0-0.429-0.136-0.509-0.354C13.584,4.978,13.728,4.666,14.01,4.562"/>
</g>
<g>
</g>
<g>
</g>
<g>
</g>
<g>
</g>
<g>
</g>
<g>
</g>
<g>
</g>
<g>
</g>
<g>
</g>
<g>
</g>
<g>
</g>
<g>
</g>
<g>
</g>
<g>
</g>
<g>
</g>
</svg>
