<?xml version="1.0" encoding="utf-8"?>
<!-- Generator: Adobe Illustrator 16.0.4, SVG Export Plug-In . SVG Version: 6.00 Build 0)  -->
<!DOCTYPE svg PUBLIC "-//W3C//DTD SVG 1.1//EN" "http://www.w3.org/Graphics/SVG/1.1/DTD/svg11.dtd">
<svg version="1.1" id="Layer_1" xmlns="http://www.w3.org/2000/svg" xmlns:xlink="http://www.w3.org/1999/xlink" x="0px" y="0px"
	 width="35.881px" height="25.874px" viewBox="0 0 35.881 25.874" enable-background="new 0 0 35.881 25.874" xml:space="preserve">
<g>
	<g>
		<path fill="#69C96A" d="M34.881,12.879l-3.146-2.443l-1.854-8.553v-2.142h-30v20.144l4.675,0.666
			c-0.071,0.293-0.082,0.598-0.082,0.913c0,2.09,1.709,3.783,3.798,3.783c2.073,0,3.763-1.669,3.789-3.734l12.644,0.473
			c0.256,1.841,1.833,3.262,3.745,3.262c2.089,0,3.784-1.693,3.784-3.783c0-0.528-0.142-1.031-0.337-1.489l2.983-0.013V12.879z"/>
		<path fill="none" stroke="#006837" stroke-miterlimit="10" d="M35.381,12.879l-3.646-2.443l-2.354-8.553V0.242h-29v19.644
			l4.425,0.666C4.735,20.844,4.6,21.149,4.6,21.464c0,2.09,1.646,3.783,3.736,3.783c2.073,0,3.732-1.669,3.757-3.734l12.628,0.473
			c0.256,1.841,1.825,3.262,3.737,3.262c2.089,0,3.78-1.693,3.78-3.783c0-0.528,0.106-1.031-0.089-1.489l3.231-0.013V12.879z"/>
	</g>
</g>
<polygon fill="#C0FFC8" points="8.647,0.294 11.042,5.145 16.396,5.923 12.521,9.699 13.436,15.031 8.647,12.513 3.859,15.031 
	4.774,9.699 0.9,5.923 6.254,5.145 "/>
<g>
</g>
<g>
</g>
<g>
</g>
<g>
</g>
<g>
</g>
<g>
</g>
<g>
</g>
<g>
</g>
<g>
</g>
<g>
</g>
<g>
</g>
<g>
</g>
<g>
</g>
<g>
</g>
<g>
</g>
</svg>
