<?xml version="1.0" encoding="utf-8"?>
<!-- Generator: Adobe Illustrator 16.0.4, SVG Export Plug-In . SVG Version: 6.00 Build 0)  -->
<!DOCTYPE svg PUBLIC "-//W3C//DTD SVG 1.1//EN" "http://www.w3.org/Graphics/SVG/1.1/DTD/svg11.dtd">
<svg version="1.1" id="Layer_1" xmlns="http://www.w3.org/2000/svg" xmlns:xlink="http://www.w3.org/1999/xlink" x="0px" y="0px"
	 width="40px" height="29.194px" viewBox="0 0 40 29.194" enable-background="new 0 0 40 29.194" xml:space="preserve">
<g>
	<g>
		<path fill="#69C96A" d="M39,14.923l-3.713-2.695L33,2.792V1.062H1v21.59l4.848,0.734c-0.079,0.323-0.245,0.66-0.245,1.008
			c0,2.306,1.808,4.174,4.113,4.174c2.287,0,4.113-1.841,4.141-4.12l13.929,0.521c0.282,2.031,2.013,3.599,4.122,3.599
			c2.305,0,4.171-1.868,4.171-4.174c0-0.583-0.156-1.138-0.372-1.643L39,22.737V14.923z"/>
		<path fill="none" stroke="#006837" stroke-miterlimit="10" d="M39.5,14.923l-3.713-2.695L33.5,2.792V0.562h-33v22.09l5.098,0.734
			c-0.079,0.323-0.12,0.66-0.12,1.008c0,2.306,1.87,4.174,4.175,4.174c2.287,0,4.144-1.841,4.172-4.12l13.944,0.521
			c0.282,2.031,2.021,3.599,4.13,3.599c2.305,0,4.175-1.868,4.175-4.174c0-0.583,0.096-1.138-0.12-1.643l3.545-0.015V14.923z"/>
	</g>
</g>
<polygon fill="#C0FFC8" points="10.052,1.039 12.693,6.39 18.6,7.249 14.325,11.414 15.334,17.296 10.052,14.519 4.77,17.296 
	5.778,11.414 1.504,7.249 7.411,6.39 "/>
<g>
</g>
<g>
</g>
<g>
</g>
<g>
</g>
<g>
</g>
<g>
</g>
<g>
</g>
<g>
</g>
<g>
</g>
<g>
</g>
<g>
</g>
<g>
</g>
<g>
</g>
<g>
</g>
<g>
</g>
</svg>
