<?xml version="1.0" encoding="utf-8"?>
<!-- Generator: Adobe Illustrator 16.0.4, SVG Export Plug-In . SVG Version: 6.00 Build 0)  -->
<!DOCTYPE svg PUBLIC "-//W3C//DTD SVG 1.1//EN" "http://www.w3.org/Graphics/SVG/1.1/DTD/svg11.dtd">
<svg version="1.1" id="Layer_1" xmlns="http://www.w3.org/2000/svg" xmlns:xlink="http://www.w3.org/1999/xlink" x="0px" y="0px"
	 width="35.492px" height="25.879px" viewBox="0 0 35.492 25.879" enable-background="new 0 0 35.492 25.879" xml:space="preserve">
<g>
	<g>
		<g>
			<path fill="#2BBDD0" stroke="#2B7A8C" stroke-width="0.8666" stroke-miterlimit="10" d="M35.078,13.168l-3.248-2.447
				l-1.951-8.572V0.316H0.414v19.873l4.406,0.668c-0.072,0.293-0.221,0.599-0.221,0.914c0,2.094,1.643,3.791,3.737,3.791
				c2.077,0,3.736-1.67,3.761-3.741l12.653,0.475c0.256,1.845,1.826,3.268,3.743,3.268c2.091,0,3.788-1.697,3.788-3.791
				c0-0.527-0.07-1.031-0.268-1.492l3.062-0.012v-7.1H35.078z"/>
		</g>
	</g>
	<polygon fill="#C0FFFF" points="9.294,1.23 11.693,6.09 17.059,6.872 13.176,10.654 14.093,15.997 9.294,13.474 4.497,15.997 
		5.412,10.654 1.531,6.872 6.896,6.09 	"/>
</g>
</svg>
