<?xml version="1.0" encoding="utf-8"?>
<!-- Generator: Adobe Illustrator 16.0.4, SVG Export Plug-In . SVG Version: 6.00 Build 0)  -->
<!DOCTYPE svg PUBLIC "-//W3C//DTD SVG 1.1//EN" "http://www.w3.org/Graphics/SVG/1.1/DTD/svg11.dtd">
<svg version="1.1" id="Layer_1" xmlns="http://www.w3.org/2000/svg" xmlns:xlink="http://www.w3.org/1999/xlink" x="0px" y="0px"
	 width="40px" height="29.193px" viewBox="0 0 40 29.193" enable-background="new 0 0 40 29.193" xml:space="preserve">
<g>
	<g>
		<g>
			<path fill="#2BBDD0" stroke="#2B7A8C" stroke-width="0.9586" stroke-miterlimit="10" d="M39.172,14.851l-3.593-2.708L33.42,2.662
				V0.634H0.828v21.983l4.875,0.738c-0.08,0.324-0.244,0.662-0.244,1.012c0,2.316,1.817,4.193,4.133,4.193
				c2.298,0,4.133-1.848,4.161-4.139l13.996,0.525c0.283,2.039,2.021,3.613,4.141,3.613c2.313,0,4.19-1.877,4.19-4.193
				c0-0.584-0.079-1.141-0.296-1.65l3.389-0.014V14.851z"/>
		</g>
	</g>
	<polygon fill="#C0FFFF" points="10.65,1.645 13.305,7.02 19.239,7.885 14.944,12.07 15.958,17.98 10.65,15.189 5.344,17.98 
		6.357,12.07 2.063,7.885 7.998,7.02 	"/>
</g>
</svg>
