<?xml version="1.0" encoding="utf-8"?>
<!-- Generator: Adobe Illustrator 16.0.4, SVG Export Plug-In . SVG Version: 6.00 Build 0)  -->
<!DOCTYPE svg PUBLIC "-//W3C//DTD SVG 1.1//EN" "http://www.w3.org/Graphics/SVG/1.1/DTD/svg11.dtd">
<svg version="1.1" id="Layer_1" xmlns="http://www.w3.org/2000/svg" xmlns:xlink="http://www.w3.org/1999/xlink" x="0px" y="0px"
	 width="35.492px" height="25.88px" viewBox="4.508 3.314 35.492 25.88" enable-background="new 4.508 3.314 35.492 25.88"
	 xml:space="preserve">
<g>
	<g>
		<g>
			<path fill="#2BBDD0" stroke="#2B7A8C" stroke-width="0.8666" stroke-miterlimit="10" d="M39.172,16.167l-3.248-2.448
				l-1.952-8.572V3.314H4.508v19.873l4.406,0.668c-0.072,0.293-0.221,0.598-0.221,0.914c0,2.094,1.643,3.791,3.737,3.791
				c2.077,0,3.736-1.67,3.761-3.741l12.653,0.475c0.256,1.844,1.826,3.267,3.743,3.267c2.091,0,3.788-1.697,3.788-3.791
				c0-0.527-0.071-1.031-0.268-1.492l3.063-0.012V16.167z"/>
		</g>
	</g>
	<polygon fill="#C0FFFF" points="13.388,4.228 15.787,9.088 21.152,9.869 17.27,13.652 18.187,18.995 13.388,16.472 8.591,18.995 
		9.506,13.652 5.625,9.869 10.989,9.088 	"/>
</g>
</svg>
